<?xml version="1.0" encoding="utf-8"?>
<!-- Generator: Adobe Illustrator 16.0.0, SVG Export Plug-In . SVG Version: 6.00 Build 0)  -->
<!DOCTYPE svg PUBLIC "-//W3C//DTD SVG 1.1//EN" "http://www.w3.org/Graphics/SVG/1.1/DTD/svg11.dtd">
<svg version="1.1" id="oil" xmlns="http://www.w3.org/2000/svg" xmlns:xlink="http://www.w3.org/1999/xlink" x="0px" y="0px"
	 width="100px" height="100px" viewBox="0 0 100 100" enable-background="new 0 0 100 100" xml:space="preserve">
<g>
	<path fill="#FFFFFF" d="M79.563,16.5c0,0.963-0.9,1.75-2,1.75H22.438c-1.1,0-2-0.787-2-1.75s0.9-1.75,2-1.75h55.125
		C78.662,14.75,79.563,15.537,79.563,16.5z"/>
	<path fill="none" stroke="#333333" stroke-linecap="round" stroke-miterlimit="10" d="M79.563,16.5c0,0.963-0.9,1.75-2,1.75H22.438
		c-1.1,0-2-0.787-2-1.75s0.9-1.75,2-1.75h55.125C78.662,14.75,79.563,15.537,79.563,16.5z"/>
</g>
<path fill="#FFFFFF" stroke="#333333" stroke-linecap="round" stroke-miterlimit="10" d="M57.833,54.666
	c0,4.326-3.507,7.834-7.833,7.834s-7.833-3.508-7.833-7.834S50,36.834,50,36.834S57.833,50.34,57.833,54.666z"/>
<line fill="#FFFFFF" stroke="#333333" stroke-linecap="round" stroke-miterlimit="10" x1="23.5" y1="69.667" x2="23.5" y2="30.125"/>
<path fill="#FFFFFF" stroke="#333333" stroke-linecap="round" stroke-miterlimit="10" d="M23.5,69.667"/>
<path fill="#FFFFFF" stroke="#333333" stroke-linecap="round" stroke-miterlimit="10" d="M23.5,77"/>
<polyline fill="#FFFFFF" stroke="#333333" stroke-linecap="round" stroke-miterlimit="10" points="75.5,76.833 75.5,81.5 23.5,81.5 
	23.5,77 "/>
<path fill="#FFFFFF" stroke="#333333" stroke-linecap="round" stroke-miterlimit="10" d="M74.5,76.833"/>
<path fill="#FFFFFF" stroke="#333333" stroke-linecap="round" stroke-miterlimit="10" d="M75.5,69.583"/>
<line fill="#FFFFFF" stroke="#333333" stroke-linecap="round" stroke-miterlimit="10" x1="75.5" y1="29.917" x2="75.5" y2="69.583"/>
<path fill="#FFFFFF" stroke="#333333" stroke-linecap="round" stroke-miterlimit="10" d="M75.5,29.917"/>
<path fill="#FFFFFF" stroke="#333333" stroke-linecap="round" stroke-miterlimit="10" d="M75.5,23.167"/>
<polyline fill="#FFFFFF" stroke="#333333" stroke-linecap="round" stroke-miterlimit="10" points="23.5,23.125 23.5,18.5 75.5,18.5 
	75.5,23.167 "/>
<g>
	<path fill="#FFFFFF" d="M78,26.5c0,0.963-0.9,1.75-2,1.75H24c-1.1,0-2-0.787-2-1.75s0.9-1.75,2-1.75h52
		C77.1,24.75,78,25.537,78,26.5z"/>
	<path fill="none" stroke="#333333" stroke-linecap="round" stroke-miterlimit="10" d="M78,26.5c0,0.963-0.9,1.75-2,1.75H24
		c-1.1,0-2-0.787-2-1.75s0.9-1.75,2-1.75h52C77.1,24.75,78,25.537,78,26.5z"/>
</g>
<g>
	<path fill="#FFFFFF" d="M78,73.5c0,0.963-0.9,1.75-2,1.75H24c-1.1,0-2-0.787-2-1.75s0.9-1.75,2-1.75h52
		C77.1,71.75,78,72.537,78,73.5z"/>
	<path fill="none" stroke="#333333" stroke-linecap="round" stroke-miterlimit="10" d="M78,73.5c0,0.963-0.9,1.75-2,1.75H24
		c-1.1,0-2-0.787-2-1.75s0.9-1.75,2-1.75h52C77.1,71.75,78,72.537,78,73.5z"/>
</g>
<g>
	<path fill="#FFFFFF" d="M79.563,83.5c0,0.963-0.9,1.75-2,1.75H22.438c-1.1,0-2-0.787-2-1.75s0.9-1.75,2-1.75h55.125
		C78.662,81.75,79.563,82.537,79.563,83.5z"/>
	<path fill="none" stroke="#333333" stroke-linecap="round" stroke-miterlimit="10" d="M79.563,83.5c0,0.963-0.9,1.75-2,1.75H22.438
		c-1.1,0-2-0.787-2-1.75s0.9-1.75,2-1.75h55.125C78.662,81.75,79.563,82.537,79.563,83.5z"/>
</g>
</svg>
