<?xml version="1.0" encoding="utf-8"?>
<!-- Generator: Adobe Illustrator 16.0.0, SVG Export Plug-In . SVG Version: 6.00 Build 0)  -->
<!DOCTYPE svg PUBLIC "-//W3C//DTD SVG 1.1//EN" "http://www.w3.org/Graphics/SVG/1.1/DTD/svg11.dtd">
<svg version="1.1" id="Layer_3" xmlns="http://www.w3.org/2000/svg" xmlns:xlink="http://www.w3.org/1999/xlink" x="0px" y="0px"
	 width="100px" height="100px" viewBox="0 0 100 100" enable-background="new 0 0 100 100" xml:space="preserve">
<path fill="#FFFFFF" stroke="#333333" stroke-miterlimit="10" d="M56.808,46.935c0,2.792-2.308,5.144-4.308,5.814V94.5h-3V52.749
	c-3-0.67-4.7-3.022-4.7-5.814c0-3.313,2.691-6.004,6.004-6.004C54.115,40.93,56.808,43.622,56.808,46.935z"/>
<g>
	<path fill="#FFFFFF" stroke="#333333" stroke-miterlimit="10" d="M59.052,51.438c0,0,5.204-0.334,9.16,1.959
		c5.61,3.253,16.839,13.053,16.839,13.053l0,0c0,0-14.101-4.826-19.722-8.059C61.363,56.113,59.052,51.438,59.052,51.438
		L59.052,51.438z"/>
</g>
<g>
	<path fill="#FFFFFF" stroke="#333333" stroke-miterlimit="10" d="M40.949,51.02c0,0-2.313,4.674-6.276,6.953
		c-5.623,3.232-19.723,8.058-19.723,8.058l0,0c0,0,11.229-9.799,16.84-13.051C35.746,50.684,40.949,51.02,40.949,51.02L40.949,51.02
		z"/>
</g>
<g>
	<path fill="#FFFFFF" stroke="#333333" stroke-miterlimit="10" d="M50.364,37.553c0,0-2.893-4.339-2.883-8.913
		c0.012-6.484,2.883-21.109,2.883-21.109l0,0c0,0,2.871,14.625,2.882,21.109C53.254,33.214,50.364,37.553,50.364,37.553
		L50.364,37.553z"/>
</g>
<path fill="#FFFFFF" stroke="#333333" stroke-linecap="round" stroke-miterlimit="10" d="M61.221,57.549
	c-0.678,0.679-1.421,1.293-2.22,1.833c-0.8,0.54-1.652,1.004-2.551,1.384"/>
<path fill="#FFFFFF" stroke="#333333" stroke-linecap="round" stroke-miterlimit="10" d="M56.45,33.104
	c0.898,0.379,1.751,0.844,2.551,1.384c0.799,0.539,1.542,1.154,2.22,1.833c0.681,0.679,1.294,1.423,1.834,2.222
	c0.539,0.798,1.004,1.651,1.384,2.549c0.381,0.898,0.674,1.841,0.875,2.818c0.199,0.977,0.306,1.988,0.306,3.025
	c0,1.036-0.106,2.048-0.306,3.025"/>
<path fill="#FFFFFF" stroke="#333333" stroke-linecap="round" stroke-miterlimit="10" d="M35.902,49.96
	c-0.199-0.977-0.305-1.99-0.305-3.025c0-1.037,0.105-2.048,0.305-3.025c0.2-0.978,0.495-1.92,0.874-2.818
	c0.381-0.898,0.844-1.751,1.384-2.549c0.539-0.799,1.155-1.542,1.833-2.222c0.68-0.679,1.423-1.294,2.223-1.833
	c0.797-0.54,1.651-1.004,2.548-1.384"/>
<path fill="#FFFFFF" stroke="#333333" stroke-linecap="round" stroke-miterlimit="10" d="M44.764,60.766
	c-0.897-0.38-1.751-0.844-2.548-1.384c-0.8-0.54-1.542-1.154-2.223-1.833"/>
<path fill="#FFFFFF" stroke="#333333" stroke-linecap="round" stroke-miterlimit="10" d="M45.565,71.444
	c-1.628-0.333-3.199-0.825-4.694-1.458c-1.498-0.633-2.92-1.407-4.251-2.307c-1.331-0.899-2.57-1.923-3.702-3.055"/>
<path fill="#FFFFFF" stroke="#333333" stroke-linecap="round" stroke-miterlimit="10" d="M68.298,64.625
	c-1.131,1.132-2.372,2.156-3.703,3.055c-1.331,0.899-2.752,1.673-4.249,2.307s-3.067,1.125-4.697,1.458"/>
<path fill="#FFFFFF" stroke="#333333" stroke-linecap="round" stroke-miterlimit="10" d="M55.648,22.425
	c1.63,0.333,3.2,0.825,4.697,1.458c1.497,0.633,2.918,1.407,4.249,2.306c1.331,0.899,2.572,1.923,3.703,3.055
	c1.132,1.132,2.156,2.372,3.056,3.703c0.898,1.331,1.673,2.753,2.306,4.25c0.634,1.497,1.124,3.067,1.458,4.696
	c0.333,1.628,0.509,3.314,0.509,5.042s-0.176,3.413-0.509,5.042"/>
<path fill="#FFFFFF" stroke="#333333" stroke-linecap="round" stroke-miterlimit="10" d="M26.098,51.976
	c-0.334-1.629-0.508-3.314-0.508-5.042s0.174-3.414,0.508-5.042c0.332-1.629,0.825-3.2,1.458-4.696
	c0.633-1.497,1.407-2.919,2.306-4.25c0.899-1.331,1.923-2.571,3.055-3.703s2.371-2.156,3.702-3.055
	c1.331-0.899,2.754-1.673,4.251-2.306c1.495-0.633,3.066-1.125,4.694-1.458"/>
</svg>
