<?xml version="1.0" encoding="utf-8"?>
<!-- Generator: Adobe Illustrator 16.0.0, SVG Export Plug-In . SVG Version: 6.00 Build 0)  -->
<!DOCTYPE svg PUBLIC "-//W3C//DTD SVG 1.1//EN" "http://www.w3.org/Graphics/SVG/1.1/DTD/svg11.dtd">
<svg version="1.1" id="fish" xmlns="http://www.w3.org/2000/svg" xmlns:xlink="http://www.w3.org/1999/xlink" x="0px" y="0px"
	 width="100px" height="100px" viewBox="0 0 100 100" enable-background="new 0 0 100 100" xml:space="preserve">
<g>
	<path fill="#FFFFFF" stroke="#333333" stroke-linecap="round" stroke-miterlimit="10" d="M31.312,49.667
		C18.417,45.623,9.445,38,9.445,38s16.619-14.12,37.129-14.12c12.09,0,22.83,4.91,29.611,8.94c1.84-3.37,5.41-5.65,9.51-5.65
		c1.75,0,3.4,0.41,4.859,1.15c-3.551,1.77-5.98,5.439-5.98,9.68s2.43,7.91,5.98,9.68c-1.459,0.74-3.109,1.15-4.859,1.15
		c-4.1,0-7.67-2.28-9.51-5.65c-1.993,1.184-4.328,2.443-6.938,3.633"/>
	<path id="fish-head_19_" fill="#FFFFFF" stroke="#333333" stroke-linecap="round" stroke-miterlimit="10" d="M23.32,36.999
		c-1.697,1.696-4.447,1.696-6.145,0"/>
	<path id="fish-head_17_" fill="#FFFFFF" stroke="#333333" stroke-linecap="round" stroke-miterlimit="10" d="M26.361,32.814
		c2.865,2.864,2.865,7.508,0,10.371"/>
</g>
<g>
	<path fill="#FFFFFF" stroke="#333333" stroke-miterlimit="10" d="M10.445,71.68c1.459,0.74,3.109,1.15,4.859,1.15
		c4.1,0,7.67-2.28,9.51-5.65c6.781,4.03,17.521,8.94,29.611,8.94C74.936,76.12,91.555,62,91.555,62S74.936,47.88,54.426,47.88
		c-12.09,0-22.83,4.91-29.611,8.94c-1.84-3.37-5.41-5.65-9.51-5.65c-1.75,0-3.4,0.41-4.859,1.15c3.551,1.77,5.98,5.439,5.98,9.68
		S13.996,69.91,10.445,71.68z"/>
	<path id="fish-head_12_" fill="#FFFFFF" stroke="#333333" stroke-linecap="round" stroke-miterlimit="10" d="M77.68,60.999
		c1.697,1.696,4.447,1.696,6.145,0"/>
	<path id="fish-head_7_" fill="#FFFFFF" stroke="#333333" stroke-linecap="round" stroke-miterlimit="10" d="M74.639,56.814
		c-2.865,2.864-2.865,7.508,0,10.371"/>
</g>
</svg>
