<?xml version="1.0" encoding="utf-8"?>
<!-- Generator: Adobe Illustrator 16.0.0, SVG Export Plug-In . SVG Version: 6.00 Build 0)  -->
<!DOCTYPE svg PUBLIC "-//W3C//DTD SVG 1.1//EN" "http://www.w3.org/Graphics/SVG/1.1/DTD/svg11.dtd">
<svg version="1.1" id="Product" xmlns="http://www.w3.org/2000/svg" xmlns:xlink="http://www.w3.org/1999/xlink" x="0px" y="0px"
	 width="100px" height="100px" viewBox="0 0 100 100" enable-background="new 0 0 100 100" xml:space="preserve">
<g id="Palette_1_">
	<path fill="#FFFFFF" d="M88.444,76.9v-3.637H11.556V76.9h3.075v4.849h-3.075v3.637h76.889v-3.637h-3.075V76.9H88.444z
		 M19.245,81.749V76.9h27.68v4.849H19.245z M80.755,81.749H51.538V76.9h29.217V81.749z"/>
	<path fill="none" stroke="#333333" stroke-miterlimit="10" d="M88.444,76.9v-3.637H11.556V76.9h3.075v4.849h-3.075v3.637h76.889
		v-3.637h-3.075V76.9H88.444z M19.245,81.749V76.9h27.68v4.849H19.245z M80.755,81.749H51.538V76.9h29.217V81.749z"/>
</g>
<g>
	<rect x="69.5" y="53.5" fill="#FFFFFF" stroke="#333333" stroke-miterlimit="10" width="17" height="17"/>
</g>
<g>
	<rect x="19.5" y="53.5" fill="#FFFFFF" stroke="#333333" stroke-miterlimit="10" width="23" height="17"/>
	<g>
		
			<line fill="#FFFFFF" stroke="#333333" stroke-linecap="round" stroke-miterlimit="10" x1="25.028" y1="57.176" x2="36.972" y2="57.176"/>
	</g>
</g>
<g>
	<rect x="44.5" y="53.5" fill="#FFFFFF" stroke="#333333" stroke-miterlimit="10" width="23" height="17"/>
	<g>
		
			<line fill="#FFFFFF" stroke="#333333" stroke-linecap="round" stroke-miterlimit="10" x1="50.028" y1="57.176" x2="61.972" y2="57.176"/>
	</g>
</g>
<g>
	
		<line fill="#FFFFFF" stroke="#333333" stroke-linecap="round" stroke-miterlimit="10" x1="73.466" y1="57.176" x2="82.035" y2="57.176"/>
</g>
<g>
	<rect x="44.5" y="35.5" fill="#FFFFFF" stroke="#333333" stroke-miterlimit="10" width="17" height="16"/>
	<g>
		
			<line fill="#FFFFFF" stroke="#333333" stroke-linecap="round" stroke-miterlimit="10" x1="48.466" y1="38.504" x2="57.035" y2="38.504"/>
	</g>
</g>
<g>
	<rect x="19.5" y="35.5" fill="#FFFFFF" stroke="#333333" stroke-miterlimit="10" width="23" height="16"/>
	<g>
		
			<line fill="#FFFFFF" stroke="#333333" stroke-linecap="round" stroke-miterlimit="10" x1="25.028" y1="38.504" x2="36.972" y2="38.504"/>
	</g>
</g>
<g>
	<rect x="63.5" y="35.5" fill="#FFFFFF" stroke="#333333" stroke-miterlimit="10" width="23" height="16"/>
	<g>
		
			<line fill="#FFFFFF" stroke="#333333" stroke-linecap="round" stroke-miterlimit="10" x1="69.028" y1="38.504" x2="80.972" y2="38.504"/>
	</g>
</g>
<g>
	<rect x="46.5" y="16.5" fill="#FFFFFF" stroke="#333333" stroke-miterlimit="10" width="34" height="17"/>
	<g>
		
			<line fill="#FFFFFF" stroke="#333333" stroke-linecap="round" stroke-miterlimit="10" x1="54.785" y1="19.833" x2="72.686" y2="19.833"/>
	</g>
</g>
</svg>
