<?xml version="1.0" encoding="utf-8"?>
<!-- Generator: Adobe Illustrator 16.0.0, SVG Export Plug-In . SVG Version: 6.00 Build 0)  -->
<!DOCTYPE svg PUBLIC "-//W3C//DTD SVG 1.1//EN" "http://www.w3.org/Graphics/SVG/1.1/DTD/svg11.dtd">
<svg version="1.1" id="person" xmlns="http://www.w3.org/2000/svg" xmlns:xlink="http://www.w3.org/1999/xlink" x="0px" y="0px"
	 width="100px" height="100px" viewBox="0 0 100 100" enable-background="new 0 0 100 100" xml:space="preserve">
<path id="body_4_" fill="#FFFFFF" stroke="#333333" stroke-miterlimit="10" d="M74.032,81.258c0-19.883-10.89-36.058-24.421-36.058
	S25.15,61.404,25.15,81.287c0,0,4.01,6.221,6.164,7.213c8.557,3.943,29.649,4.917,37.686,0
	C70.881,87.35,74.032,81.258,74.032,81.258z"/>
<circle id="head_4_" fill="#FFFFFF" stroke="#333333" stroke-miterlimit="10" cx="49.689" cy="33.266" r="14.625"/>
<path fill="#FFFFFF" stroke="#333333" stroke-miterlimit="10" d="M64.196,31.5h-0.013h-0.012c-0.332-3-9.172-5.625-11.484-8.688
	c-1.5,6.25-13.813,3.813-17.623,10.454c0,0-0.131-3.837,0.085-6.236c-0.102-13.655,20.253-13.358,22.586-9.817
	c2.584-0.583,6.14,2.6,6.298,8.938C64.297,29.006,64.196,31.5,64.196,31.5z"/>
<path fill="#FFFFFF" stroke="#333333" stroke-miterlimit="10" d="M25.15,81.287"/>
<g>
	<path fill="#FFFFFF" d="M43,95c0,0.552-0.448,1-1,1h-9c-0.552,0-1-0.448-1-1V75c0-0.552,0.448-1,1-1h9c0.552,0,1,0.448,1,1V95z"/>
	<path fill="none" stroke="#333333" stroke-miterlimit="10" d="M43.5,94.5c0,0.552-0.448,1-1,1h-9c-0.552,0-1-0.448-1-1v-20
		c0-0.552,0.448-1,1-1h9c0.552,0,1,0.448,1,1V94.5z"/>
</g>
<circle id="hand_24_" fill="#FFFFFF" stroke="#333333" stroke-miterlimit="10" cx="69.314" cy="88.266" r="5.375"/>
<circle id="hand_7_" fill="#FFFFFF" stroke="#333333" stroke-miterlimit="10" cx="31.314" cy="88.266" r="5.375"/>
<line fill="#FFFFFF" stroke="#333333" stroke-linecap="round" stroke-miterlimit="10" x1="41.5" y1="76" x2="41.5" y2="93"/>
</svg>
