<?xml version="1.0" encoding="utf-8"?>
<!-- Generator: Adobe Illustrator 16.0.0, SVG Export Plug-In . SVG Version: 6.00 Build 0)  -->
<!DOCTYPE svg PUBLIC "-//W3C//DTD SVG 1.1//EN" "http://www.w3.org/Graphics/SVG/1.1/DTD/svg11.dtd">
<svg version="1.1" id="business-assets" xmlns="http://www.w3.org/2000/svg" xmlns:xlink="http://www.w3.org/1999/xlink" x="0px"
	 y="0px" width="100px" height="100px" viewBox="0 0 100 100" enable-background="new 0 0 100 100" xml:space="preserve">
<g>
	<g>
		<path fill="#FFFFFF" d="M91.703,79c0,3.3-2.7,6-6,6H14.297c-3.3,0-6-2.7-6-6v-9.895c0-3.3,2.7-6,6-6h71.406c3.3,0,6,2.7,6,6V79z"
			/>
		<path fill="none" stroke="#333333" stroke-miterlimit="10" d="M91.703,79c0,3.3-2.7,6-6,6H14.297c-3.3,0-6-2.7-6-6v-9.895
			c0-3.3,2.7-6,6-6h71.406c3.3,0,6,2.7,6,6V79z"/>
	</g>
	<circle fill="none" stroke="#333333" stroke-miterlimit="10" cx="17.956" cy="73.735" r="4.866"/>
	<circle fill="none" stroke="#333333" stroke-miterlimit="10" cx="82.044" cy="73.735" r="4.865"/>
	<g>
		<g>
			<line fill="none" stroke="#333333" stroke-linecap="round" stroke-miterlimit="10" x1="27" y1="80.5" x2="33" y2="80.5"/>
			
				<line fill="none" stroke="#333333" stroke-linecap="round" stroke-miterlimit="10" stroke-dasharray="11,11" x1="44" y1="80.5" x2="61" y2="80.5"/>
			<line fill="none" stroke="#333333" stroke-linecap="round" stroke-miterlimit="10" x1="67" y1="80.5" x2="73" y2="80.5"/>
		</g>
	</g>
	<g>
		<g>
			<line fill="none" stroke="#333333" stroke-linecap="round" stroke-miterlimit="10" x1="27" y1="67.5" x2="33" y2="67.5"/>
			
				<line fill="none" stroke="#333333" stroke-linecap="round" stroke-miterlimit="10" stroke-dasharray="11,11" x1="44" y1="67.5" x2="61" y2="67.5"/>
			<line fill="none" stroke="#333333" stroke-linecap="round" stroke-miterlimit="10" x1="67" y1="67.5" x2="73" y2="67.5"/>
		</g>
	</g>
</g>
<g>
	<g>
		<g>
			<g>
				<g>
					<path fill="none" stroke="#333333" stroke-linecap="round" stroke-miterlimit="10" d="M86.858,56.495"/>
				</g>
			</g>
			<g>
				<g>
					<path fill="none" stroke="#333333" stroke-linecap="round" stroke-miterlimit="10" d="M13.142,56.495"/>
				</g>
			</g>
		</g>
		<g>
			<g>
				<g>
					<path fill="none" stroke="#333333" stroke-linecap="round" stroke-miterlimit="10" d="M86.858,56.495v-3.661c0-0.55-0.45-1-1-1
						h-3.279c-0.55,0-1.087-0.441-1.193-0.981l-1.33-5.192c-0.169-0.523,0.083-1.177,0.559-1.452l3.046-1.761
						c0.476-0.275,0.641-0.891,0.366-1.367l-3.659-6.343c-0.275-0.477-0.889-0.642-1.365-0.366l-3.022,1.746
						c-0.476,0.275-1.166,0.164-1.532-0.246l-3.823-3.818c-0.411-0.365-0.523-1.054-0.248-1.53l1.746-3.029
						c0.275-0.477,0.11-1.091-0.367-1.366l-6.343-3.66c-0.477-0.275-1.091-0.11-1.366,0.366l-1.763,3.056
						c-0.275,0.477-0.928,0.728-1.451,0.558l-5.194-1.338c-0.54-0.106-0.981-0.644-0.981-1.193v-3.278c0-0.55-0.45-1-1-1H50"/>
				</g>
			</g>
			<g>
				<g>
					<path fill="none" stroke="#333333" stroke-linecap="round" stroke-miterlimit="10" d="M13.142,56.495v-3.661c0-0.55,0.45-1,1-1
						h3.279c0.55,0,1.087-0.441,1.193-0.981l1.33-5.192c0.169-0.523-0.082-1.177-0.558-1.451l-3.048-1.763
						c-0.476-0.274-0.641-0.89-0.366-1.366l3.66-6.343c0.275-0.477,0.89-0.641,1.366-0.366l3.021,1.746
						c0.476,0.274,1.166,0.164,1.532-0.246l3.824-3.818c0.412-0.365,0.523-1.054,0.249-1.53l-1.746-3.029
						c-0.275-0.477-0.11-1.091,0.367-1.366l6.343-3.66c0.477-0.275,1.091-0.11,1.366,0.366l1.763,3.056
						c0.275,0.477,0.928,0.728,1.451,0.558l5.194-1.338c0.54-0.106,0.981-0.644,0.981-1.193v-3.278c0-0.55,0.45-1,1-1H50"/>
				</g>
			</g>
		</g>
	</g>
</g>
<path fill="none" stroke="#333333" stroke-linecap="round" stroke-miterlimit="10" d="M34.445,56.495
	c0-8.591,6.965-15.555,15.555-15.555s15.555,6.964,15.555,15.555"/>
</svg>
