<?xml version="1.0" encoding="utf-8"?>
<!-- Generator: Adobe Illustrator 16.0.0, SVG Export Plug-In . SVG Version: 6.00 Build 0)  -->
<!DOCTYPE svg PUBLIC "-//W3C//DTD SVG 1.1//EN" "http://www.w3.org/Graphics/SVG/1.1/DTD/svg11.dtd">
<svg version="1.1" id="Layer_12" xmlns="http://www.w3.org/2000/svg" xmlns:xlink="http://www.w3.org/1999/xlink" x="0px" y="0px"
	 width="100px" height="100px" viewBox="0 0 100 100" enable-background="new 0 0 100 100" xml:space="preserve">
<rect x="74.921" y="45.423" fill="#FFFFFF" stroke="#333333" stroke-linecap="round" stroke-miterlimit="10" width="7.12" height="33.566"/>
<rect x="17.959" y="42.371" fill="#FFFFFF" stroke="#333333" stroke-linecap="round" stroke-miterlimit="10" width="7.12" height="33.566"/>
<path fill="#FFFFFF" stroke="#333333" stroke-linecap="round" stroke-miterlimit="10" d="M32.207,22.402
	c0-2.438,1.975-4.402,4.403-4.402c1.01,0,1.937,0.334,2.68,0.908C40.03,18.334,40.958,18,41.968,18c1.011,0,1.937,0.334,2.678,0.908
	C45.389,18.334,46.315,18,47.326,18c1.01,0,1.937,0.334,2.678,0.908C50.746,18.334,51.673,18,52.674,18
	c1.094,0,2.094,0.398,2.854,1.047c0.714-0.491,1.576-0.779,2.504-0.779c1.012,0,1.938,0.336,2.678,0.91
	c0.743-0.574,1.669-0.91,2.68-0.91c2.428,0,4.403,1.976,4.403,4.412"/>
<path fill="#FFFFFF" stroke="#333333" stroke-linecap="round" stroke-miterlimit="10" d="M26.854,28.892
	c0-2.438,1.975-4.403,4.403-4.403c1.01,0,1.937,0.335,2.679,0.908c0.741-0.573,1.67-0.908,2.679-0.908
	c1.011,0,1.938,0.335,2.679,0.908c0.742-0.573,1.669-0.908,2.681-0.908c1.01,0,1.936,0.335,2.678,0.908
	c0.741-0.573,1.668-0.908,2.669-0.908c1.095,0,2.096,0.398,2.854,1.049c0.715-0.492,1.577-0.779,2.503-0.779
	c1.012,0,1.939,0.333,2.679,0.908c0.743-0.575,1.67-0.908,2.68-0.908c1.012,0,1.938,0.333,2.68,0.908
	c0.741-0.575,1.659-0.908,2.678-0.908c1.009,0,1.938,0.333,2.681,0.908c0.741-0.575,1.669-0.908,2.668-0.908
	c2.438,0,4.404,1.974,4.404,4.412"/>
<path fill="#FFFFFF" stroke="#333333" stroke-linecap="round" stroke-miterlimit="10" d="M21.497,35.38
	c0-2.438,1.974-4.401,4.402-4.401c1.01,0,1.938,0.332,2.679,0.907c0.741-0.575,1.669-0.907,2.679-0.907s1.938,0.332,2.679,0.907
	c0.742-0.575,1.67-0.907,2.68-0.907s1.938,0.332,2.679,0.907c0.741-0.575,1.668-0.907,2.67-0.907c1.093,0,2.094,0.396,2.854,1.046
	c0.714-0.491,1.575-0.778,2.503-0.778c1.01,0,1.938,0.333,2.679,0.907c0.741-0.574,1.669-0.907,2.678-0.907
	c1.012,0,1.939,0.333,2.681,0.907c0.741-0.574,1.658-0.907,2.678-0.907c1.012,0,1.938,0.333,2.68,0.907
	c0.741-0.574,1.667-0.907,2.668-0.907c1.011,0,1.939,0.333,2.681,0.907c0.741-0.574,1.669-0.907,2.678-0.907
	c0.928,0,1.79,0.287,2.503,0.778c0.769-0.649,1.762-1.046,2.855-1.046c2.429,0,4.404,1.964,4.404,4.401"/>
<g>
	<g>
		<path fill="#FFFFFF" d="M83.832,47.948c0,1.65-1.35,3-3,3H19.168c-1.65,0-3-1.35-3-3v-6.746c0-1.65,1.35-3,3-3h61.664
			c1.65,0,3,1.35,3,3V47.948z"/>
		<path fill="none" stroke="#333333" stroke-linecap="round" stroke-miterlimit="10" d="M83.832,47.948c0,1.65-1.35,3-3,3H19.168
			c-1.65,0-3-1.35-3-3v-6.746c0-1.65,1.35-3,3-3h61.664c1.65,0,3,1.35,3,3V47.948z"/>
	</g>
	<circle fill="#FFFFFF" stroke="#333333" stroke-linecap="round" stroke-miterlimit="10" cx="21.574" cy="44.575" r="0.464"/>
	<circle fill="#FFFFFF" stroke="#333333" stroke-linecap="round" stroke-miterlimit="10" cx="79.044" cy="44.575" r="0.464"/>
</g>
<g>
	<g>
		<path fill="#FFFFFF" d="M83.832,63.474c0,1.65-1.35,3-3,3H19.168c-1.65,0-3-1.35-3-3v-6.744c0-1.65,1.35-3,3-3h61.664
			c1.65,0,3,1.35,3,3V63.474z"/>
		<path fill="none" stroke="#333333" stroke-linecap="round" stroke-miterlimit="10" d="M83.832,63.474c0,1.65-1.35,3-3,3H19.168
			c-1.65,0-3-1.35-3-3v-6.744c0-1.65,1.35-3,3-3h61.664c1.65,0,3,1.35,3,3V63.474z"/>
	</g>
	<circle fill="#FFFFFF" stroke="#333333" stroke-linecap="round" stroke-miterlimit="10" cx="21.574" cy="60.102" r="0.464"/>
	<circle fill="#FFFFFF" stroke="#333333" stroke-linecap="round" stroke-miterlimit="10" cx="79.044" cy="60.102" r="0.464"/>
</g>
<g>
	<g>
		<path fill="#FFFFFF" d="M83.832,79c0,1.65-1.35,3-3,3H19.168c-1.65,0-3-1.35-3-3v-6.745c0-1.65,1.35-3,3-3h61.664
			c1.65,0,3,1.35,3,3V79z"/>
		<path fill="none" stroke="#333333" stroke-linecap="round" stroke-miterlimit="10" d="M83.832,79c0,1.65-1.35,3-3,3H19.168
			c-1.65,0-3-1.35-3-3v-6.745c0-1.65,1.35-3,3-3h61.664c1.65,0,3,1.35,3,3V79z"/>
	</g>
	<circle fill="#FFFFFF" stroke="#333333" stroke-linecap="round" stroke-miterlimit="10" cx="21.574" cy="75.628" r="0.464"/>
	<circle fill="#FFFFFF" stroke="#333333" stroke-linecap="round" stroke-miterlimit="10" cx="79.044" cy="75.628" r="0.464"/>
</g>
</svg>
