<?xml version="1.0" encoding="utf-8"?>
<!-- Generator: Adobe Illustrator 16.0.0, SVG Export Plug-In . SVG Version: 6.00 Build 0)  -->
<!DOCTYPE svg PUBLIC "-//W3C//DTD SVG 1.1//EN" "http://www.w3.org/Graphics/SVG/1.1/DTD/svg11.dtd">
<svg version="1.1" id="Layer_3" xmlns="http://www.w3.org/2000/svg" xmlns:xlink="http://www.w3.org/1999/xlink" x="0px" y="0px"
	 width="100px" height="100px" viewBox="0 0 100 100" enable-background="new 0 0 100 100" xml:space="preserve">
<path fill="none" stroke="#333333" stroke-miterlimit="10" d="M49.741,6.725c0,0,26.575,23.347,26.575,50.212
	c0,22.897-24.655,26.365-24.655,26.365l1.761,10.423h-3.45h-3.449l1.788-10.423c0,0-24.625-3.468-24.625-26.365
	c0-26.865,26.517-50.212,26.517-50.212"/>
<line fill="none" stroke="#333333" stroke-linecap="round" stroke-miterlimit="10" x1="50" y1="7.015" x2="49.971" y2="29.029"/>
<line fill="none" stroke="#333333" stroke-linecap="round" stroke-miterlimit="10" x1="50.015" y1="68.463" x2="49.985" y2="80.953"/>
<line fill="none" stroke="#333333" stroke-linecap="round" stroke-miterlimit="10" x1="50" y1="34.53" x2="49.971" y2="62.854"/>
<g>
	<g>
		
			<line fill="none" stroke="#333333" stroke-linecap="round" stroke-miterlimit="10" x1="49.971" y1="58.336" x2="66.596" y2="46.485"/>
	</g>
	<g>
		
			<line fill="none" stroke="#333333" stroke-linecap="round" stroke-miterlimit="10" x1="49.971" y1="58.336" x2="33.347" y2="46.485"/>
	</g>
</g>
<g>
	<g>
		
			<line fill="none" stroke="#333333" stroke-linecap="round" stroke-miterlimit="10" x1="49.971" y1="41.52" x2="60.67" y2="34.53"/>
	</g>
	<g>
		
			<line fill="none" stroke="#333333" stroke-linecap="round" stroke-miterlimit="10" x1="49.971" y1="41.52" x2="39.272" y2="34.53"/>
	</g>
</g>
<g>
	<g>
		
			<line fill="none" stroke="#333333" stroke-linecap="round" stroke-miterlimit="10" x1="49.971" y1="24.547" x2="55.32" y2="21.025"/>
	</g>
	<g>
		
			<line fill="none" stroke="#333333" stroke-linecap="round" stroke-miterlimit="10" x1="49.971" y1="24.547" x2="44.622" y2="21.025"/>
	</g>
</g>
<g>
	<g>
		
			<line fill="none" stroke="#333333" stroke-linecap="round" stroke-miterlimit="10" x1="49.971" y1="74.709" x2="59.91" y2="69.824"/>
	</g>
	<g>
		
			<line fill="none" stroke="#333333" stroke-linecap="round" stroke-miterlimit="10" x1="49.971" y1="74.709" x2="40.032" y2="69.824"/>
	</g>
</g>
</svg>
