<?xml version="1.0" encoding="utf-8"?>
<!-- Generator: Adobe Illustrator 16.0.0, SVG Export Plug-In . SVG Version: 6.00 Build 0)  -->
<!DOCTYPE svg PUBLIC "-//W3C//DTD SVG 1.1//EN" "http://www.w3.org/Graphics/SVG/1.1/DTD/svg11.dtd">
<svg version="1.1" id="Layer_3" xmlns="http://www.w3.org/2000/svg" xmlns:xlink="http://www.w3.org/1999/xlink" x="0px" y="0px"
	 width="100px" height="100px" viewBox="0 0 100 100" enable-background="new 0 0 100 100" xml:space="preserve">
<g>
	<path fill="none" stroke="#333333" stroke-miterlimit="10" d="M49.741,6.725c0,0,26.575,23.347,26.575,50.211
		c0,22.896-23.664,26.225-23.664,26.225c-0.544,0.077-0.916,0.583-0.824,1.125l1.426,8.341c0.092,0.542-0.284,0.873-0.833,0.873
		h-1.45c-0.55,0-1.45,0-2,0h-1.449c-0.55,0-0.924-0.331-0.831-0.873l1.45-8.397c0.093-0.542-0.277-1.021-0.821-1.098
		c0,0-23.635-3.314-23.635-26.21c0-26.864,26.517-50.204,26.517-50.204"/>
</g>
<polygon fill="none" stroke="#333333" stroke-miterlimit="10" points="51.615,46.646 55.794,31.562 35.017,53.372 48.219,53.372 
	44.115,68.456 64.983,46.646 "/>
<line fill="none" stroke="#333333" stroke-linecap="round" stroke-miterlimit="10" x1="50" y1="7.013" x2="49.971" y2="29.031"/>
<line fill="none" stroke="#333333" stroke-linecap="round" stroke-miterlimit="10" x1="50.015" y1="68.464" x2="49.985" y2="80.955"/>
</svg>
