<?xml version="1.0" encoding="utf-8"?>
<!-- Generator: Adobe Illustrator 16.0.0, SVG Export Plug-In . SVG Version: 6.00 Build 0)  -->
<!DOCTYPE svg PUBLIC "-//W3C//DTD SVG 1.1//EN" "http://www.w3.org/Graphics/SVG/1.1/DTD/svg11.dtd">
<svg version="1.1" id="ice" xmlns="http://www.w3.org/2000/svg" xmlns:xlink="http://www.w3.org/1999/xlink" x="0px" y="0px"
	 width="100px" height="100px" viewBox="0 0 100 100" enable-background="new 0 0 100 100" xml:space="preserve">
<g>
	<g>
		<path fill="#FFFFFF" d="M21.212,52.369l-3.453-2.102C16.807,49.717,16,48.244,16,47.145V30.382c0-1.1,0.812-2.45,1.764-3
			L32.292,19c0.953-0.55,2.52-0.55,3.472,0l14.508,8.382c0.952,0.55,1.728,1.9,1.728,3V34"/>
		<path fill="none" stroke="#333333" stroke-linecap="round" stroke-linejoin="round" stroke-miterlimit="10" d="M21.462,52.369
			l-3.328-2.102c-0.953-0.551-1.635-2.023-1.635-3.123V30.382c0-1.1,0.562-2.45,1.514-3L32.417,19c0.953-0.55,2.457-0.55,3.41,0
			l14.727,8.382c0.952,0.55,1.946,1.9,1.946,3V34"/>
	</g>
	<g>
		
			<line fill="#FFFFFF" stroke="#333333" stroke-linecap="round" stroke-linejoin="round" stroke-miterlimit="10" x1="34.041" y1="38.457" x2="34.041" y2="43.085"/>
		
			<line fill="#FFFFFF" stroke="#333333" stroke-linecap="round" stroke-linejoin="round" stroke-miterlimit="10" x1="46.861" y1="31.056" x2="34.041" y2="38.457"/>
		
			<line fill="#FFFFFF" stroke="#333333" stroke-linecap="round" stroke-linejoin="round" stroke-miterlimit="10" x1="21.22" y1="31.056" x2="34.041" y2="38.457"/>
	</g>
	<polyline fill="#FFFFFF" stroke="#333333" stroke-linecap="round" stroke-linejoin="round" stroke-miterlimit="10" points="
		31.225,23.203 34.308,21.424 37.007,22.941 	"/>
</g>
<g>
	<g>
		<path fill="#FFFFFF" d="M48,44v-2.979c0-1.1,0.771-2.45,1.724-3l14.509-8.382c0.952-0.55,2.509-0.55,3.461,0l14.545,8.382
			c0.952,0.55,1.762,1.9,1.762,3v16.763c0,1.1-0.811,2.45-1.764,3l-14.529,8.384c-0.952,0.55-2.519,0.55-3.472,0l-3.361-2.019"/>
		<path fill="none" stroke="#333333" stroke-linecap="round" stroke-linejoin="round" stroke-miterlimit="10" d="M47.5,44v-2.979
			c0-1.1,1.021-2.45,1.974-3l14.634-8.382c0.952-0.55,2.571-0.55,3.523,0l14.326,8.382c0.952,0.55,1.543,1.9,1.543,3v16.763
			c0,1.1-0.561,2.45-1.514,3l-14.404,8.384c-0.952,0.55-2.456,0.55-3.409,0l-3.58-2.019"/>
	</g>
	<g>
		
			<line fill="#FFFFFF" stroke="#333333" stroke-linecap="round" stroke-linejoin="round" stroke-miterlimit="10" x1="65.96" y1="49.096" x2="65.96" y2="66.132"/>
		
			<line fill="#FFFFFF" stroke="#333333" stroke-linecap="round" stroke-linejoin="round" stroke-miterlimit="10" x1="78.781" y1="41.694" x2="65.96" y2="49.096"/>
		
			<line fill="#FFFFFF" stroke="#333333" stroke-linecap="round" stroke-linejoin="round" stroke-miterlimit="10" x1="53.14" y1="41.694" x2="65.96" y2="49.096"/>
	</g>
	<polyline fill="#FFFFFF" stroke="#333333" stroke-linecap="round" stroke-linejoin="round" stroke-miterlimit="10" points="
		78.302,60.063 81.22,58.377 81.337,55.233 	"/>
</g>
<g>
	<g>
		<path fill="#FFFFFF" d="M22,54.854c0-1.1,1.003-2.45,1.956-3l14.624-8.383c0.953-0.55,2.567-0.55,3.52,0l14.34,8.383
			c0.952,0.55,1.56,1.9,1.56,3v16.762c0,1.1-0.579,2.45-1.531,3L42.056,83c-0.953,0.55-2.461,0.55-3.414,0l-14.711-8.384
			c-0.953-0.55-1.931-1.9-1.931-3V54.854z"/>
		<path fill="none" stroke="#333333" stroke-linecap="round" stroke-linejoin="round" stroke-miterlimit="10" d="M22.5,54.854
			c0-1.1,0.753-2.45,1.706-3l14.499-8.383c0.953-0.55,2.505-0.55,3.458,0l14.559,8.383c0.952,0.55,1.778,1.9,1.778,3v16.762
			c0,1.1-0.829,2.45-1.781,3L42.181,83c-0.953,0.55-2.524,0.55-3.476,0l-14.493-8.384c-0.953-0.55-1.712-1.9-1.712-3V54.854z"/>
	</g>
	<g>
		
			<line fill="#FFFFFF" stroke="#333333" stroke-linecap="round" stroke-linejoin="round" stroke-miterlimit="10" x1="40.424" y1="62.929" x2="40.424" y2="79.963"/>
		
			<line fill="#FFFFFF" stroke="#333333" stroke-linecap="round" stroke-linejoin="round" stroke-miterlimit="10" x1="53.245" y1="55.526" x2="40.424" y2="62.929"/>
		
			<line fill="#FFFFFF" stroke="#333333" stroke-linecap="round" stroke-linejoin="round" stroke-miterlimit="10" x1="27.604" y1="55.526" x2="40.424" y2="62.929"/>
	</g>
	<polyline fill="#FFFFFF" stroke="#333333" stroke-linecap="round" stroke-linejoin="round" stroke-miterlimit="10" points="
		25.5,68 25.5,71.338 28.163,73.028 	"/>
</g>
</svg>
