<?xml version="1.0" encoding="utf-8"?>
<!-- Generator: Adobe Illustrator 16.0.0, SVG Export Plug-In . SVG Version: 6.00 Build 0)  -->
<!DOCTYPE svg PUBLIC "-//W3C//DTD SVG 1.1//EN" "http://www.w3.org/Graphics/SVG/1.1/DTD/svg11.dtd">
<svg version="1.1" id="Fisherman" xmlns="http://www.w3.org/2000/svg" xmlns:xlink="http://www.w3.org/1999/xlink" x="0px" y="0px"
	 width="100px" height="100px" viewBox="0 0 100 100" enable-background="new 0 0 100 100" xml:space="preserve">
<path id="body_1_" fill="#FFFFFF" stroke="#333333" stroke-miterlimit="10" d="M25.5,80.032c0-19.883,10.969-36,24.5-36
	s24.5,16.117,24.5,36"/>
<circle id="head_5_" fill="#FFFFFF" stroke="#333333" stroke-miterlimit="10" cx="50" cy="32.157" r="14.625"/>
<g>
	<path fill="#FFFFFF" stroke="#333333" stroke-miterlimit="10" d="M50,9.456c4.637-0.073,11.627,0.905,13.375,3.069
		c0.864,1.069-0.045,4.117,0.063,5.488C63.552,19.47,68.5,25.5,68.5,25.5H50H31.484c0,0,4.95-6.03,5.064-7.488
		c0.107-1.371-0.8-4.418,0.064-5.488c1.748-2.164,8.742-3.142,13.379-3.069"/>
</g>
<g>
	<path fill="#FFFFFF" stroke="#333333" stroke-miterlimit="10" d="M90.86,84.712c-1.46,0.74-3.11,1.15-4.86,1.15
		c-4.1,0-7.67-2.28-9.51-5.65c-6.78,4.03-17.521,8.94-29.61,8.94c-20.51,0-37.13-14.12-37.13-14.12s16.62-14.12,37.13-14.12
		c12.09,0,22.83,4.91,29.61,8.94c1.84-3.37,5.41-5.65,9.51-5.65c1.75,0,3.4,0.41,4.86,1.15c-3.551,1.77-5.98,5.439-5.98,9.68
		S87.31,82.942,90.86,84.712z"/>
	<path id="fish-head_15_" fill="#FFFFFF" stroke="#333333" stroke-linecap="round" stroke-miterlimit="10" d="M23.625,74.031
		c-1.697,1.696-4.447,1.696-6.144,0"/>
	<path id="fish-head_2_" fill="#FFFFFF" stroke="#333333" stroke-linecap="round" stroke-miterlimit="10" d="M26.667,69.847
		c2.864,2.864,2.864,7.508,0,10.371"/>
</g>
<circle id="hand_27_" fill="#FFFFFF" stroke="#333333" stroke-miterlimit="10" cx="69.625" cy="87.157" r="5.375"/>
<circle id="hand_9_" fill="#FFFFFF" stroke="#333333" stroke-miterlimit="10" cx="31.625" cy="87.157" r="5.375"/>
</svg>
