<?xml version="1.0" encoding="utf-8"?>
<!-- Generator: Adobe Illustrator 16.0.0, SVG Export Plug-In . SVG Version: 6.00 Build 0)  -->
<!DOCTYPE svg PUBLIC "-//W3C//DTD SVG 1.1//EN" "http://www.w3.org/Graphics/SVG/1.1/DTD/svg11.dtd">
<svg version="1.1" id="Layer_3" xmlns="http://www.w3.org/2000/svg" xmlns:xlink="http://www.w3.org/1999/xlink" x="0px" y="0px"
	 width="100px" height="100px" viewBox="0 0 100 100" enable-background="new 0 0 100 100" xml:space="preserve">
<g id="cog">
	<path fill="none" stroke="#333333" stroke-miterlimit="10" d="M81.252,79.838c-0.389,0.389-1.025,1.025-1.414,1.414L77.39,83.7
		c-0.389,0.389-1.025,0.389-1.414,0l-2.96-2.96c-0.389-0.389-1.081-0.456-1.537-0.149l-5.702,3.375
		c-0.49,0.25-0.774,0.89-0.632,1.421l1.155,4.317c0.142,0.531-0.176,1.083-0.708,1.225l-8.623,2.313
		c-0.531,0.142-1.082-0.176-1.225-0.707l-1.146-4.283c-0.143-0.531-0.708-0.94-1.257-0.909l-6.676-0.004
		c-0.549-0.033-1.115,0.375-1.257,0.906l-1.152,4.29c-0.143,0.531-0.694,0.849-1.225,0.707l-8.623-2.313
		c-0.531-0.142-0.849-0.693-0.707-1.225l1.16-4.325c0.143-0.531-0.142-1.17-0.631-1.42l-5.708-3.37
		c-0.457-0.306-1.149-0.239-1.538,0.15l-2.96,2.96c-0.389,0.389-1.025,0.389-1.414,0l-2.448-2.448
		c-0.389-0.389-1.025-1.025-1.414-1.414L16.3,77.39c-0.389-0.389-0.389-1.025,0-1.414l2.96-2.96c0.389-0.389,0.456-1.081,0.15-1.538
		l-3.37-5.708c-0.25-0.49-0.889-0.774-1.42-0.631l-4.325,1.16c-0.531,0.143-1.083-0.175-1.225-0.707l-2.313-8.623
		c-0.142-0.531,0.176-1.083,0.707-1.225l4.29-1.152c0.531-0.143,0.939-0.708,0.906-1.257l-0.004-6.676
		c0.031-0.549-0.378-1.115-0.909-1.257l-4.283-1.146c-0.531-0.143-0.849-0.693-0.707-1.225l2.313-8.623
		c0.142-0.531,0.693-0.85,1.225-0.708l4.317,1.155c0.531,0.142,1.171-0.142,1.421-0.632l3.375-5.702
		c0.307-0.457,0.239-1.148-0.149-1.537l-2.96-2.96c-0.389-0.389-0.389-1.025,0-1.414l2.448-2.448
		c0.389-0.389,1.025-1.025,1.414-1.414L22.61,16.3c0.389-0.389,1.025-0.389,1.414,0l2.96,2.96c0.389,0.389,1.081,0.456,1.537,0.149
		l5.702-3.375c0.49-0.25,0.774-0.89,0.632-1.421l-1.155-4.317c-0.142-0.531,0.176-1.083,0.708-1.225l8.623-2.313
		c0.531-0.143,1.082,0.175,1.225,0.707l1.146,4.283c0.143,0.531,0.708,0.94,1.257,0.909l6.676,0.004
		c0.549,0.033,1.115-0.375,1.257-0.906l1.152-4.291c0.143-0.531,0.694-0.849,1.225-0.707l8.623,2.313
		c0.531,0.142,0.849,0.693,0.707,1.225l-1.16,4.325c-0.143,0.531,0.142,1.17,0.631,1.42l5.708,3.37
		c0.457,0.306,1.149,0.239,1.538-0.15l2.96-2.96c0.389-0.389,1.025-0.389,1.414,0l2.448,2.448c0.389,0.389,1.025,1.025,1.414,1.414
		L83.7,22.61c0.389,0.389,0.389,1.025,0,1.414l-2.96,2.96c-0.389,0.389-0.456,1.081-0.15,1.538l3.37,5.708
		c0.25,0.49,0.889,0.774,1.42,0.631l4.325-1.16c0.531-0.143,1.083,0.175,1.225,0.707l2.312,8.623
		c0.142,0.531-0.176,1.083-0.707,1.225l-4.29,1.152c-0.531,0.143-0.939,0.708-0.906,1.257l0.004,6.676
		c-0.031,0.549,0.378,1.115,0.909,1.257l4.282,1.146c0.531,0.143,0.849,0.693,0.707,1.225l-2.312,8.623
		c-0.142,0.531-0.693,0.85-1.225,0.708l-4.317-1.155c-0.531-0.142-1.171,0.142-1.421,0.632l-3.375,5.702
		c-0.307,0.457-0.239,1.148,0.149,1.537l2.96,2.96c0.389,0.389,0.389,1.025,0,1.414L81.252,79.838z"/>
	<circle fill="#FFFFFF" stroke="#333333" stroke-miterlimit="10" cx="50" cy="50" r="26.732"/>
</g>
<polygon id="lightning" fill="#FFFFFF" stroke="#333333" stroke-miterlimit="10" points="51.669,46.5 55.988,30.935 34.514,53.5 
	48.159,53.5 43.917,69.065 65.486,46.5 "/>
</svg>
