<?xml version="1.0" encoding="utf-8"?>
<!-- Generator: Adobe Illustrator 16.0.0, SVG Export Plug-In . SVG Version: 6.00 Build 0)  -->
<!DOCTYPE svg PUBLIC "-//W3C//DTD SVG 1.1//EN" "http://www.w3.org/Graphics/SVG/1.1/DTD/svg11.dtd">
<svg version="1.1" id="know-how" xmlns="http://www.w3.org/2000/svg" xmlns:xlink="http://www.w3.org/1999/xlink" x="0px" y="0px"
	 width="100px" height="100px" viewBox="0 0 100 100" enable-background="new 0 0 100 100" xml:space="preserve">
<g>
	<g>
		<path fill="#FFFFFF" d="M62.507,49.573l22.599,22.599c0.777,0.777,0.777,2.051,0,2.828L75,85.105
			c-0.777,0.777-2.051,0.777-2.828,0L49.35,62.284"/>
		<path fill="none" stroke="#333333" stroke-linecap="round" stroke-miterlimit="10" d="M62.507,49.573l22.599,22.599
			c0.777,0.777,0.777,2.051,0,2.828L75,85.105c-0.777,0.777-2.051,0.777-2.828,0L49.35,62.284"/>
	</g>
	<g>
		<path fill="#FFFFFF" d="M62.507,49.573"/>
		<path fill="none" stroke="#333333" stroke-linecap="round" stroke-miterlimit="10" d="M62.507,49.573"/>
	</g>
	<g>
		<path fill="#FFFFFF" d="M50.25,37.316"/>
		<path fill="none" stroke="#333333" stroke-linecap="round" stroke-miterlimit="10" d="M50.25,37.316"/>
	</g>
	<g>
		<path fill="#FFFFFF" d="M37.71,50.646L14.895,27.829c-0.777-0.777-0.777-2.051,0-2.828L25,14.895c0.777-0.777,2.051-0.777,2.828,0
			L50.25,37.316"/>
		<path fill="none" stroke="#333333" stroke-linecap="round" stroke-miterlimit="10" d="M37.71,50.646L14.895,27.829
			c-0.777-0.777-0.777-2.051,0-2.828L25,14.895c0.777-0.777,2.051-0.777,2.828,0L50.25,37.316"/>
	</g>
	
		<line fill="#FFFFFF" stroke="#333333" stroke-linecap="round" stroke-miterlimit="10" x1="32.676" y1="19.947" x2="28.433" y2="24.19"/>
	<path fill="#FFFFFF" stroke="#333333" stroke-linecap="round" stroke-miterlimit="10" d="M58.029,54.465"/>
	<path fill="#FFFFFF" stroke="#333333" stroke-linecap="round" stroke-miterlimit="10" d="M62.271,50.22"/>
	
		<line fill="#FFFFFF" stroke="#333333" stroke-linecap="round" stroke-miterlimit="10" x1="72.98" y1="60.253" x2="68.738" y2="64.495"/>
	
		<line fill="#FFFFFF" stroke="#333333" stroke-linecap="round" stroke-miterlimit="10" x1="66.617" y1="53.889" x2="62.374" y2="58.132"/>
	<path fill="#FFFFFF" stroke="#333333" stroke-linecap="round" stroke-miterlimit="10" d="M46.008,42.443"/>
	<path fill="#FFFFFF" stroke="#333333" stroke-linecap="round" stroke-miterlimit="10" d="M50.252,38.2"/>
	
		<line fill="#FFFFFF" stroke="#333333" stroke-linecap="round" stroke-miterlimit="10" x1="45.301" y1="33.249" x2="41.059" y2="37.494"/>
	
		<line fill="#FFFFFF" stroke="#333333" stroke-linecap="round" stroke-miterlimit="10" x1="39.04" y1="26.312" x2="34.797" y2="30.555"/>
	
		<line fill="#FFFFFF" stroke="#333333" stroke-linecap="round" stroke-miterlimit="10" x1="53.182" y1="58.132" x2="75.103" y2="80.052"/>
	
		<line fill="#FFFFFF" stroke="#333333" stroke-linecap="round" stroke-miterlimit="10" x1="19.24" y1="24.19" x2="41.868" y2="46.817"/>
	
		<line fill="#FFFFFF" stroke="#333333" stroke-linecap="round" stroke-miterlimit="10" x1="79.345" y1="66.616" x2="75.103" y2="70.859"/>
</g>
<g>
	<g>
		<path fill="#FFFFFF" d="M71.974,20.604l4.156-4.158c0.777-0.777,2.051-0.777,2.828,0l4.595,4.596c0.777,0.777,0.777,2.051,0,2.829
			l-4.248,4.25"/>
		<path fill="none" stroke="#333333" stroke-linecap="round" stroke-miterlimit="10" d="M71.974,20.604l4.156-4.158
			c0.777-0.777,2.051-0.777,2.828,0l4.595,4.596c0.777,0.777,0.777,2.051,0,2.829l-4.248,4.25"/>
	</g>
	<polygon fill="#FFFFFF" stroke="#333333" stroke-linecap="round" stroke-miterlimit="10" points="29.527,77.897 18.744,81.256 
		22.103,70.473 72.6,19.976 80.023,27.398 	"/>
	<path fill="#FFFFFF" stroke="#333333" stroke-miterlimit="10" d="M22.103,70.473c0,0,2.462,0.214,4.836,2.589
		c2.252,2.251,2.589,4.836,2.589,4.836"/>
	
		<line fill="#FFFFFF" stroke="#333333" stroke-linecap="round" stroke-miterlimit="10" x1="72.505" y1="27.495" x2="30.918" y2="69.082"/>
</g>
</svg>
