<?xml version="1.0" encoding="utf-8"?>
<!-- Generator: Adobe Illustrator 16.0.0, SVG Export Plug-In . SVG Version: 6.00 Build 0)  -->
<!DOCTYPE svg PUBLIC "-//W3C//DTD SVG 1.1//EN" "http://www.w3.org/Graphics/SVG/1.1/DTD/svg11.dtd">
<svg version="1.1" id="Layer_3" xmlns="http://www.w3.org/2000/svg" xmlns:xlink="http://www.w3.org/1999/xlink" x="0px" y="0px"
	 width="100px" height="100px" viewBox="0 0 100 100" enable-background="new 0 0 100 100" xml:space="preserve">
<polygon fill="#FFFFFF" stroke="#333333" stroke-miterlimit="10" points="50,93.5 52.5,93.5 52.5,84.5 78.755,84.5 68.626,50.5 
	50,50.5 31.374,50.5 21.245,84.5 47.5,84.5 47.5,93.5 "/>
<path fill="#FFFFFF" stroke="#333333" stroke-miterlimit="10" d="M37.991,48.407c-3.176-3.107-5.146-7.45-5.146-12.254
	c0-9.479,7.677-17.155,17.155-17.155s17.155,7.676,17.155,17.155c0,4.804-1.971,9.146-5.146,12.254"/>
<g>
	
		<line fill="#FFFFFF" stroke="#333333" stroke-linecap="round" stroke-miterlimit="10" x1="63.313" y1="20.289" x2="69.062" y2="13.438"/>
</g>
<g>
	
		<line fill="#FFFFFF" stroke="#333333" stroke-linecap="round" stroke-miterlimit="10" x1="70.396" y1="32.559" x2="79.202" y2="31.004"/>
</g>
<g>
	
		<line fill="#FFFFFF" stroke="#333333" stroke-linecap="round" stroke-miterlimit="10" x1="67.936" y1="46.51" x2="75.681" y2="50.98"/>
</g>
<g>
	
		<line fill="#FFFFFF" stroke="#333333" stroke-linecap="round" stroke-miterlimit="10" x1="32.064" y1="46.508" x2="24.319" y2="50.98"/>
</g>
<g>
	
		<line fill="#FFFFFF" stroke="#333333" stroke-linecap="round" stroke-miterlimit="10" x1="29.605" y1="32.557" x2="20.798" y2="31.004"/>
</g>
<g>
	
		<line fill="#FFFFFF" stroke="#333333" stroke-linecap="round" stroke-miterlimit="10" x1="36.688" y1="20.29" x2="30.938" y2="13.438"/>
</g>
<g>
	<line fill="#FFFFFF" stroke="#333333" stroke-linecap="round" stroke-miterlimit="10" x1="50" y1="15.444" x2="50" y2="6.5"/>
</g>
<g>
	<polygon fill="#FFFFFF" stroke="#333333" stroke-miterlimit="10" points="39.238,73.5 39.055,74.646 38.87,76.047 38.687,77.575 
		38.502,79.038 38.318,80.5 37.614,80.5 36.91,80.5 36.205,80.5 35.502,80.5 34.798,80.5 34.093,80.5 33.39,80.5 32.685,80.5 
		31.979,80.5 31.274,80.5 30.571,80.5 29.867,80.5 29.163,80.5 28.459,80.5 27.754,80.5 27.05,80.5 27.479,78.974 27.907,77.384 
		28.336,75.761 28.764,74.631 29.192,73.5 	"/>
	<polygon fill="#FFFFFF" stroke="#333333" stroke-miterlimit="10" points="30.05,69.177 30.479,67.523 30.908,65.868 31.337,64.184 
		31.766,62.5 40.341,62.5 40.157,64.184 39.974,65.853 39.789,67.515 39.605,69.173 	"/>
	<polygon fill="#FFFFFF" stroke="#333333" stroke-miterlimit="10" points="32.621,59.5 33.051,57.721 33.479,56.111 33.907,54.5 
		34.367,54.5 34.827,54.5 35.286,54.5 35.746,54.5 36.205,54.5 36.665,54.5 37.125,54.5 37.584,54.5 38.044,54.5 38.502,54.5 
		38.962,54.5 39.422,54.5 39.881,54.5 40.341,54.5 40.8,54.5 41.26,54.5 41.076,56.049 40.892,57.774 40.708,59.5 	"/>
</g>
<g>
	<polygon fill="#FFFFFF" stroke="#333333" stroke-miterlimit="10" points="60.354,73.5 60.538,74.646 60.722,76.047 60.906,77.575 
		61.089,79.038 61.272,80.5 61.978,80.5 62.683,80.5 63.387,80.5 64.091,80.5 64.794,80.5 65.499,80.5 66.203,80.5 66.908,80.5 
		67.613,80.5 68.316,80.5 69.021,80.5 69.726,80.5 70.43,80.5 71.133,80.5 71.838,80.5 72.543,80.5 72.114,78.974 71.686,77.384 
		71.256,75.761 70.828,74.631 70.4,73.5 	"/>
	<polygon fill="#FFFFFF" stroke="#333333" stroke-miterlimit="10" points="69.542,69.177 69.113,67.523 68.685,65.868 
		68.256,64.184 67.827,62.5 59.251,62.5 59.436,64.184 59.619,65.853 59.803,67.515 59.986,69.173 	"/>
	<polygon fill="#FFFFFF" stroke="#333333" stroke-miterlimit="10" points="66.971,59.5 66.542,57.721 66.113,56.111 65.685,54.5 
		65.226,54.5 64.766,54.5 64.307,54.5 63.847,54.5 63.387,54.5 62.928,54.5 62.468,54.5 62.009,54.5 61.549,54.5 61.089,54.5 
		60.63,54.5 60.17,54.5 59.711,54.5 59.251,54.5 58.792,54.5 58.332,54.5 58.517,56.049 58.7,57.774 58.884,59.5 	"/>
</g>
<g>
	<polygon fill="#FFFFFF" stroke="#333333" stroke-miterlimit="10" points="56.586,73.5 56.739,74.646 56.893,76.047 57.046,77.575 
		57.198,79.038 57.352,80.5 56.433,80.5 55.514,80.5 54.595,80.5 53.677,80.5 52.758,80.5 51.838,80.5 50.919,80.5 50,80.5 
		49.081,80.5 48.162,80.5 47.242,80.5 46.323,80.5 45.405,80.5 44.486,80.5 43.567,80.5 42.648,80.5 42.802,78.974 42.954,77.384 
		43.107,75.761 43.26,74.631 43.414,73.5 	"/>
	<polygon fill="#FFFFFF" stroke="#333333" stroke-miterlimit="10" points="44.639,59.5 44.792,57.721 44.945,56.111 45.099,54.5 
		45.711,54.5 46.323,54.5 46.937,54.5 47.55,54.5 48.162,54.5 48.774,54.5 49.387,54.5 50,54.5 50.613,54.5 51.226,54.5 
		51.838,54.5 52.45,54.5 53.063,54.5 53.677,54.5 54.289,54.5 54.901,54.5 55.055,56.049 55.208,57.774 55.361,59.5 	"/>
	<polygon fill="#FFFFFF" stroke="#333333" stroke-miterlimit="10" points="55.667,62.56 55.82,64.214 55.974,65.868 56.127,67.684 
		56.28,69.5 43.72,69.5 43.873,67.684 44.026,65.949 44.18,64.254 44.333,62.58 	"/>
</g>
</svg>
