<?xml version="1.0" encoding="utf-8"?>
<!-- Generator: Adobe Illustrator 16.0.0, SVG Export Plug-In . SVG Version: 6.00 Build 0)  -->
<!DOCTYPE svg PUBLIC "-//W3C//DTD SVG 1.1//EN" "http://www.w3.org/Graphics/SVG/1.1/DTD/svg11.dtd">
<svg version="1.1" id="farmer" xmlns="http://www.w3.org/2000/svg" xmlns:xlink="http://www.w3.org/1999/xlink" x="0px" y="0px"
	 width="100px" height="100px" viewBox="0 0 100 100" enable-background="new 0 0 100 100" xml:space="preserve">
<path id="body_6_" fill="#FFFFFF" stroke="#333333" stroke-miterlimit="10" d="M25.5,80.032c0-19.883,10.969-36,24.5-36
	s24.5,16.117,24.5,36"/>
<circle id="head_6_" fill="#FFFFFF" stroke="#333333" stroke-miterlimit="10" cx="50" cy="32.157" r="14.625"/>
<g>
	<path id="bag_2_" fill="#FFFFFF" stroke="#333333" stroke-miterlimit="10" d="M22.887,85.38c-1.369,0-2.478-1.108-2.478-2.478
		c0-0.79,0.365-1.487,0.932-1.936c-1.346-3.635-1.18-15.635,0.189-19.316c-0.673-0.436-1.121-1.203-1.121-2.076
		c0-1.369,1.108-2.478,2.478-2.478c0.814,0,1.533,0.39,1.982,0.979c3.586-1.416,47.153-1.251,50.753,0.189
		c0.436-0.697,1.215-1.169,2.112-1.169c1.367,0,2.478,1.108,2.478,2.478c0,0.896-0.473,1.676-1.169,2.112
		c1.439,3.599,1.605,15.646,0.189,19.232c0.59,0.45,0.979,1.169,0.979,1.983c0,1.369-1.11,2.478-2.478,2.478
		c-0.874,0-1.641-0.448-2.078-1.121c-3.682,1.369-47.201,1.535-50.835,0.188C24.374,85.015,23.678,85.38,22.887,85.38z"/>
	<g id="bag-hole_2_">
		<g>
			<g>
				<line fill="#FFFFFF" x1="59" y1="79" x2="59" y2="78"/>
				<line fill="none" stroke="#333333" stroke-linecap="round" stroke-miterlimit="10" x1="58.5" y1="79" x2="58.5" y2="78"/>
			</g>
			<g>
				<line fill="#FFFFFF" x1="55" y1="79" x2="55" y2="78"/>
				<line fill="none" stroke="#333333" stroke-linecap="round" stroke-miterlimit="10" x1="54.5" y1="79" x2="54.5" y2="78"/>
			</g>
			<g>
				<line fill="#FFFFFF" x1="51" y1="79" x2="51" y2="78"/>
				<line fill="none" stroke="#333333" stroke-linecap="round" stroke-miterlimit="10" x1="50.5" y1="79" x2="50.5" y2="78"/>
			</g>
			<g>
				<line fill="#FFFFFF" x1="47" y1="79" x2="47" y2="78"/>
				<line fill="none" stroke="#333333" stroke-linecap="round" stroke-miterlimit="10" x1="46.5" y1="79" x2="46.5" y2="78"/>
			</g>
			<g>
				<line fill="#FFFFFF" x1="43" y1="79" x2="43" y2="78"/>
				<line fill="none" stroke="#333333" stroke-linecap="round" stroke-miterlimit="10" x1="42.5" y1="79" x2="42.5" y2="78"/>
			</g>
		</g>
		<g>
			<g>
				<line fill="#FFFFFF" x1="59" y1="75" x2="59" y2="74"/>
				<line fill="none" stroke="#333333" stroke-linecap="round" stroke-miterlimit="10" x1="58.5" y1="75" x2="58.5" y2="74"/>
			</g>
			<g>
				<line fill="#FFFFFF" x1="55" y1="75" x2="55" y2="74"/>
				<line fill="none" stroke="#333333" stroke-linecap="round" stroke-miterlimit="10" x1="54.5" y1="75" x2="54.5" y2="74"/>
			</g>
			<g>
				<line fill="#FFFFFF" x1="51" y1="75" x2="51" y2="74"/>
				<line fill="none" stroke="#333333" stroke-linecap="round" stroke-miterlimit="10" x1="50.5" y1="75" x2="50.5" y2="74"/>
			</g>
			<g>
				<line fill="#FFFFFF" x1="47" y1="75" x2="47" y2="74"/>
				<line fill="none" stroke="#333333" stroke-linecap="round" stroke-miterlimit="10" x1="46.5" y1="75" x2="46.5" y2="74"/>
			</g>
			<g>
				<line fill="#FFFFFF" x1="43" y1="75" x2="43" y2="74"/>
				<line fill="none" stroke="#333333" stroke-linecap="round" stroke-miterlimit="10" x1="42.5" y1="75" x2="42.5" y2="74"/>
			</g>
		</g>
		<g>
			<g>
				<line fill="#FFFFFF" x1="59" y1="71" x2="59" y2="70"/>
				<line fill="none" stroke="#333333" stroke-linecap="round" stroke-miterlimit="10" x1="58.5" y1="71" x2="58.5" y2="70"/>
			</g>
			<g>
				<line fill="#FFFFFF" x1="55" y1="71" x2="55" y2="70"/>
				<line fill="none" stroke="#333333" stroke-linecap="round" stroke-miterlimit="10" x1="54.5" y1="71" x2="54.5" y2="70"/>
			</g>
			<g>
				<line fill="#FFFFFF" x1="51" y1="71" x2="51" y2="70"/>
				<line fill="none" stroke="#333333" stroke-linecap="round" stroke-miterlimit="10" x1="50.5" y1="71" x2="50.5" y2="70"/>
			</g>
			<g>
				<line fill="#FFFFFF" x1="47" y1="71" x2="47" y2="70"/>
				<line fill="none" stroke="#333333" stroke-linecap="round" stroke-miterlimit="10" x1="46.5" y1="71" x2="46.5" y2="70"/>
			</g>
			<g>
				<line fill="#FFFFFF" x1="43" y1="71" x2="43" y2="70"/>
				<line fill="none" stroke="#333333" stroke-linecap="round" stroke-miterlimit="10" x1="42.5" y1="71" x2="42.5" y2="70"/>
			</g>
		</g>
		<g>
			<g>
				<line fill="#FFFFFF" x1="59" y1="67" x2="59" y2="66"/>
				<line fill="none" stroke="#333333" stroke-linecap="round" stroke-miterlimit="10" x1="58.5" y1="67" x2="58.5" y2="66"/>
			</g>
			<g>
				<line fill="#FFFFFF" x1="55" y1="67" x2="55" y2="66"/>
				<line fill="none" stroke="#333333" stroke-linecap="round" stroke-miterlimit="10" x1="54.5" y1="67" x2="54.5" y2="66"/>
			</g>
			<g>
				<line fill="#FFFFFF" x1="51" y1="67" x2="51" y2="66"/>
				<line fill="none" stroke="#333333" stroke-linecap="round" stroke-miterlimit="10" x1="50.5" y1="67" x2="50.5" y2="66"/>
			</g>
			<g>
				<line fill="#FFFFFF" x1="47" y1="67" x2="47" y2="66"/>
				<line fill="none" stroke="#333333" stroke-linecap="round" stroke-miterlimit="10" x1="46.5" y1="67" x2="46.5" y2="66"/>
			</g>
			<g>
				<line fill="#FFFFFF" x1="43" y1="67" x2="43" y2="66"/>
				<line fill="none" stroke="#333333" stroke-linecap="round" stroke-miterlimit="10" x1="42.5" y1="67" x2="42.5" y2="66"/>
			</g>
		</g>
	</g>
</g>
<circle id="hand_13_" fill="#FFFFFF" stroke="#333333" stroke-miterlimit="10" cx="69.625" cy="87.157" r="5.375"/>
<circle id="hand_10_" fill="#FFFFFF" stroke="#333333" stroke-miterlimit="10" cx="31.625" cy="87.157" r="5.375"/>
<path id="hat_3_" fill="#FFFFFF" stroke="#333333" stroke-miterlimit="10" d="M29.5,22.5c-0.616-3.129,7.455-6.049,10.229-7.625
	S49.958,7.25,49.958,7.25s7.454,6.055,10.231,7.625c2.777,1.569,11.232,4.598,10.229,7.625C67.197,32.209,31.476,32.537,29.5,22.5z"
	/>
</svg>
