<?xml version="1.0" encoding="utf-8"?>
<!-- Generator: Adobe Illustrator 16.0.0, SVG Export Plug-In . SVG Version: 6.00 Build 0)  -->
<!DOCTYPE svg PUBLIC "-//W3C//DTD SVG 1.1//EN" "http://www.w3.org/Graphics/SVG/1.1/DTD/svg11.dtd">
<svg version="1.1" id="Layer_3" xmlns="http://www.w3.org/2000/svg" xmlns:xlink="http://www.w3.org/1999/xlink" x="0px" y="0px"
	 width="100px" height="100px" viewBox="0 0 100 100" enable-background="new 0 0 100 100" xml:space="preserve">
<path fill="none" stroke="#333333" stroke-width="2" stroke-miterlimit="10" d="M80.753,57.419c0,3.808-0.86,7.436-2.417,10.736
	c-1.556,3.3-3.808,6.271-6.591,8.767c-2.782,2.496-6.095,4.515-9.775,5.911C58.291,84.228,54.246,85,50,85
	s-8.292-0.772-11.971-2.167c-3.68-1.396-6.993-3.415-9.774-5.911c-2.783-2.496-5.034-5.467-6.591-8.767
	c-1.557-3.3-2.417-6.929-2.417-10.736c0-3.809,0.86-7.796,2.417-11.637c1.557-3.841,3.808-7.534,6.591-10.75
	c2.781-3.216,6.095-5.956,9.774-7.893C41.708,25.204,47.946,19.963,50,15c1.541,4.279,8.291,10.204,11.971,12.14
	c3.68,1.937,6.993,4.676,9.775,7.893c2.783,3.216,5.035,6.908,6.591,10.75C79.893,49.623,80.753,53.61,80.753,57.419z"/>
<g>
	<path fill="none" stroke="#333333" stroke-miterlimit="10" d="M46.701,78.069c-2.858,0-5.558-0.614-7.999-1.721
		c-2.44-1.109-4.623-2.714-6.449-4.695c-1.827-1.982-3.294-4.343-4.306-6.964c-1.012-2.622-1.568-5.503-1.568-8.528
		c0-3.024,0.556-5.907,1.568-8.527c1.012-2.622,2.479-4.981,4.306-6.964c1.826-1.982,4.008-3.586,6.449-4.695
		c2.441-1.108,5.141-1.722,7.999-1.722c0,0,3.932,8.032,3.81,10.954c-0.252,6.084-7.62,17.085-7.62,22.936
		C42.89,71.067,46.701,78.069,46.701,78.069z"/>
</g>
<g>
	<path fill="none" stroke="#333333" stroke-miterlimit="10" d="M52.272,34.253c2.858,0,5.558,0.614,7.999,1.722
		c2.44,1.108,4.623,2.712,6.449,4.695c1.827,1.982,3.294,4.342,4.306,6.963c1.012,2.621,1.568,5.504,1.568,8.528
		c0,3.025-0.556,5.907-1.568,8.527c-1.012,2.621-2.479,4.981-4.306,6.963c-1.826,1.983-4.008,3.586-6.449,4.696
		c-2.441,1.108-5.141,1.722-7.999,1.722c0,0-3.932-8.032-3.81-10.954c0.253-6.084,7.621-17.085,7.621-22.935
		C56.083,41.256,52.272,34.253,52.272,34.253z"/>
</g>
</svg>
