<?xml version="1.0" encoding="utf-8"?>
<!-- Generator: Adobe Illustrator 16.0.0, SVG Export Plug-In . SVG Version: 6.00 Build 0)  -->
<!DOCTYPE svg PUBLIC "-//W3C//DTD SVG 1.1//EN" "http://www.w3.org/Graphics/SVG/1.1/DTD/svg11.dtd">
<svg version="1.1" xmlns="http://www.w3.org/2000/svg" xmlns:xlink="http://www.w3.org/1999/xlink" x="0px" y="0px" width="100px"
	 height="100px" viewBox="0 0 100 100" enable-background="new 0 0 100 100" xml:space="preserve">
<g id="family">
	<path id="body_15_" fill="#FFFFFF" stroke="#333333" stroke-miterlimit="10" d="M68.612,77.258
		c0-19.883-10.89-36.058-24.421-36.058S19.73,57.404,19.73,77.287c0,0,4.01,6.221,6.164,7.213c8.557,3.943,29.649,4.917,37.686,0
		C65.461,83.35,68.612,77.258,68.612,77.258z"/>
	<path id="head_15_" fill="#FFFFFF" stroke="#333333" stroke-miterlimit="10" d="M58.895,29.266c0,8.077-6.549,14.625-14.625,14.625
		c-8.078,0-14.625-6.548-14.625-14.625c0-11.266,10.668-2.829,17.105-12.079C50.813,24.563,58.895,18.95,58.895,29.266z"/>
	<path fill="#FFFFFF" stroke="#333333" stroke-miterlimit="10" d="M19.73,77.287"/>
	<circle id="hand_31_" fill="#FFFFFF" stroke="#333333" stroke-miterlimit="10" cx="25.895" cy="84.266" r="5.375"/>
	<g id="kid_2_">
		<path id="body_5_" fill="#FFFFFF" stroke="#333333" stroke-miterlimit="10" d="M77.449,84.618
			c0-11.274-6.175-20.447-13.848-20.447c-7.674,0-13.871,9.189-13.871,20.464c0,0,2.273,3.528,3.496,4.091
			c4.852,2.236,16.813,2.788,21.369,0C75.662,88.073,77.449,84.618,77.449,84.618z"/>
		<circle id="head_1_" fill="#FFFFFF" stroke="#333333" stroke-miterlimit="10" cx="63.646" cy="57.404" r="8.293"/>
		<path fill="#FFFFFF" stroke="#333333" stroke-miterlimit="10" d="M55.341,56.5h0.007h0.007c0.188-2,5.202-3.238,6.513-4.975
			c0.851,3.544,7.832,2.137,9.993,5.902c0,0,0.075-2.188-0.048-3.548c0.057-7.743-11.484-7.581-12.808-5.572
			c-1.466-0.332-3.481,1.52-3.571,5.114C55.283,55.04,55.341,56.5,55.341,56.5z"/>
		<path fill="#FFFFFF" stroke="#333333" stroke-miterlimit="10" d="M49.73,84.635"/>
		<circle id="hand_29_" fill="#FFFFFF" stroke="#333333" stroke-miterlimit="10" cx="74.774" cy="88.593" r="3.048"/>
		<circle id="hand_22_" fill="#FFFFFF" stroke="#333333" stroke-miterlimit="10" cx="53.226" cy="88.593" r="3.048"/>
	</g>
	<circle id="hand_2_" fill="#FFFFFF" stroke="#333333" stroke-miterlimit="10" cx="74.895" cy="70.266" r="5.375"/>
	<path fill="none" stroke="#333333" stroke-miterlimit="10" d="M34.078,39.751l-7.646,4.14C32,31.375,18.375,26.125,30.584,12.5
		c5.908-6.594,20.802-5.886,27.416,0c11.52,10.25-1.727,25.75,3.25,30.25l-8.023-1.927"/>
	<path fill="#FFFFFF" stroke="#333333" stroke-linecap="round" stroke-miterlimit="10" d="M43.723,20.835"/>
</g>
<g id="Layer_3">
</g>
</svg>
