<?xml version="1.0" encoding="utf-8"?>
<!-- Generator: Adobe Illustrator 16.0.0, SVG Export Plug-In . SVG Version: 6.00 Build 0)  -->
<!DOCTYPE svg PUBLIC "-//W3C//DTD SVG 1.1//EN" "http://www.w3.org/Graphics/SVG/1.1/DTD/svg11.dtd">
<svg version="1.1" id="shrimp" xmlns="http://www.w3.org/2000/svg" xmlns:xlink="http://www.w3.org/1999/xlink" x="0px" y="0px"
	 width="100px" height="100px" viewBox="0 0 100 100" enable-background="new 0 0 100 100" xml:space="preserve">
<path fill="#FFFFFF" stroke="#333333" stroke-linecap="round" stroke-miterlimit="10" d="M66.087,37.977
	c-0.918-1.359-1.307-2.885-1.307-4.649c0-4.703,3.887-8.459,8.589-8.459c4.706,0,8.558,3.612,8.558,8.315S78.15,41.5,73.444,41.5H18
	"/>
<path fill="#FFFFFF" stroke="#333333" stroke-linecap="round" stroke-miterlimit="10" d="M52.721,42.528"/>
<path fill="#FFFFFF" stroke="#333333" stroke-linecap="round" stroke-miterlimit="10" d="M75.034,66.138
	c1.162,0.691,2.566,1.089,4.004,1.089c4.232,0,7.729-3.433,7.729-7.662c0-4.23-3.363-7.659-7.594-7.659H56.134"/>
<path fill="#FFFFFF" stroke="#333333" stroke-linecap="round" stroke-miterlimit="10" d="M57.47,64.269
	c-0.753,1.116-1.078,2.305-1.078,3.754c0,3.862,3.186,6.915,7.048,6.915c3.865,0,7.024-2.855,7.024-6.72
	c0-3.86-3.104-6.718-6.965-6.718H18"/>
<line fill="#FFFFFF" stroke="#333333" stroke-linecap="round" stroke-miterlimit="10" x1="13" y1="51.5" x2="35" y2="51.5"/>
<line fill="#FFFFFF" stroke="#333333" stroke-linecap="round" stroke-miterlimit="10" x1="39" y1="51.5" x2="51" y2="51.5"/>
<path fill="#FFFFFF" stroke="#333333" stroke-linecap="round" stroke-miterlimit="10" d="M42.437,33.266"/>
<path fill="#FFFFFF" stroke="#333333" stroke-linecap="round" stroke-miterlimit="10" d="M59.719,33.266"/>
<line fill="#FFFFFF" stroke="#333333" stroke-linecap="round" stroke-miterlimit="10" x1="59" y1="33.5" x2="15" y2="33.5"/>
<line fill="#FFFFFF" stroke="#333333" stroke-linecap="round" stroke-miterlimit="10" x1="48" y1="69.5" x2="24" y2="69.5"/>
</svg>
