<?xml version="1.0" encoding="utf-8"?>
<!-- Generator: Adobe Illustrator 16.0.0, SVG Export Plug-In . SVG Version: 6.00 Build 0)  -->
<!DOCTYPE svg PUBLIC "-//W3C//DTD SVG 1.1//EN" "http://www.w3.org/Graphics/SVG/1.1/DTD/svg11.dtd">
<svg version="1.1" id="engineer" xmlns="http://www.w3.org/2000/svg" xmlns:xlink="http://www.w3.org/1999/xlink" x="0px" y="0px"
	 width="100px" height="100px" viewBox="0 0 100 100" enable-background="new 0 0 100 100" xml:space="preserve">
<path id="body_2_" fill="#FFFFFF" stroke="#333333" stroke-miterlimit="10" d="M25.189,80.141c0-19.883,10.969-36,24.5-36
	s24.5,16.117,24.5,36"/>
<circle id="head_2_" fill="#FFFFFF" stroke="#333333" stroke-miterlimit="10" cx="49.689" cy="32.266" r="14.625"/>
<path fill="#FFFFFF" stroke="#333333" stroke-miterlimit="10" d="M66.66,22.15c0,2.5-7.46,4.52-16.66,4.52s-16.66-2.02-16.66-4.52
	c0-0.99,1.16-1.9,3.15-2.64c0.04-4.52,4.04-9.64,9.54-11.39c0.08-0.68,0.39-1.28,0.85-1.74C47.42,5.84,48.17,5.5,49,5.5h2
	c1.53,0,2.79,1.14,2.97,2.62c5.5,1.75,9.5,6.87,9.54,11.39C65.5,20.25,66.66,21.16,66.66,22.15z"/>
<line fill="#FFFFFF" stroke="#333333" stroke-linecap="round" stroke-miterlimit="10" x1="46.001" y1="8" x2="46.001" y2="11.667"/>
<path fill="#FFFFFF" stroke="#333333" stroke-linecap="round" stroke-miterlimit="10" d="M61.441,20.591
	c-3.084,2.697-19.84,2.631-22.883-0.029"/>
<line fill="#FFFFFF" stroke="#333333" stroke-linecap="round" stroke-miterlimit="10" x1="53.917" y1="8" x2="53.917" y2="11.667"/>
<polygon fill="#FFFFFF" stroke="#333333" stroke-miterlimit="10" points="75.625,84.5 50,90.5 24.375,84.5 24.375,72 24.375,59.5 
	50,65.5 75.625,59.5 75.625,72 "/>
<circle id="hand_20_" fill="#FFFFFF" stroke="#333333" stroke-miterlimit="10" cx="69.314" cy="87.266" r="5.375"/>
<circle id="hand_4_" fill="#FFFFFF" stroke="#333333" stroke-miterlimit="10" cx="31.314" cy="87.266" r="5.375"/>
<line fill="#FFFFFF" stroke="#333333" stroke-linecap="round" stroke-miterlimit="10" x1="50" y1="70" x2="50" y2="87"/>
<line fill="#FFFFFF" stroke="#333333" stroke-linecap="round" stroke-miterlimit="10" x1="71.5" y1="76.75" x2="57.5" y2="80.141"/>
<circle fill="#FFFFFF" stroke="#333333" stroke-miterlimit="10" cx="50" cy="16.856" r="2.705"/>
<g>
	<g>
		<path fill="#FFFFFF" stroke="#333333" stroke-miterlimit="10" d="M66.953,71.001c-0.294,1.664-1.881,3.013-3.545,3.013
			c-1.662,0-2.776-1.349-2.482-3.013c0.293-1.665,1.883-3.014,3.545-3.014C66.135,67.987,67.246,69.336,66.953,71.001z"/>
		<path fill="#FFFFFF" stroke="#333333" stroke-linecap="round" stroke-miterlimit="10" d="M60.926,71.001"/>
		<path fill="#FFFFFF" stroke="#333333" stroke-linecap="round" stroke-miterlimit="10" d="M66.953,71.001"/>
		<g>
			
				<line fill="#FFFFFF" stroke="#333333" stroke-linecap="round" stroke-miterlimit="10" x1="60.926" y1="71.001" x2="59.908" y2="71.001"/>
			
				<line fill="#FFFFFF" stroke="#333333" stroke-linecap="round" stroke-miterlimit="10" x1="67.971" y1="71.001" x2="66.953" y2="71.001"/>
		</g>
		<g>
			
				<line fill="#FFFFFF" stroke="#333333" stroke-linecap="round" stroke-miterlimit="10" x1="64.471" y1="67.986" x2="64.65" y2="66.969"/>
			
				<line fill="#FFFFFF" stroke="#333333" stroke-linecap="round" stroke-miterlimit="10" x1="63.229" y1="75.031" x2="63.408" y2="74.014"/>
		</g>
		<g>
			
				<line fill="#FFFFFF" stroke="#333333" stroke-linecap="round" stroke-miterlimit="10" x1="66.446" y1="68.869" x2="67.292" y2="68.15"/>
			
				<line fill="#FFFFFF" stroke="#333333" stroke-linecap="round" stroke-miterlimit="10" x1="60.586" y1="73.852" x2="61.433" y2="73.132"/>
		</g>
		<g>
			
				<line fill="#FFFFFF" stroke="#333333" stroke-linecap="round" stroke-miterlimit="10" x1="65.695" y1="73.132" x2="66.288" y2="73.852"/>
			
				<line fill="#FFFFFF" stroke="#333333" stroke-linecap="round" stroke-miterlimit="10" x1="61.592" y1="68.15" x2="62.186" y2="68.87"/>
		</g>
	</g>
	<path fill="#FFFFFF" stroke="#333333" stroke-miterlimit="10" d="M64.439,71c-0.049,0.276-0.312,0.5-0.588,0.5
		s-0.461-0.224-0.412-0.5s0.312-0.5,0.588-0.5S64.488,70.724,64.439,71z"/>
</g>
</svg>
