<?xml version="1.0" encoding="utf-8"?>
<!-- Generator: Adobe Illustrator 16.0.0, SVG Export Plug-In . SVG Version: 6.00 Build 0)  -->
<!DOCTYPE svg PUBLIC "-//W3C//DTD SVG 1.1//EN" "http://www.w3.org/Graphics/SVG/1.1/DTD/svg11.dtd">
<svg version="1.1" id="shrimp" xmlns="http://www.w3.org/2000/svg" xmlns:xlink="http://www.w3.org/1999/xlink" x="0px" y="0px"
	 width="100px" height="100px" viewBox="0 0 100 100" enable-background="new 0 0 100 100" xml:space="preserve">
<path fill="#FFFFFF" stroke="#333333" stroke-linecap="round" stroke-miterlimit="10" d="M50.208,35.67
	c2.686-3.215,13.49-1.446,16.258,1.67c2.77,3.116-0.997,18.224-0.997,18.224s-7.35-2.265-13.62-1.335"/>
<path fill="#FFFFFF" stroke="#333333" stroke-linecap="round" stroke-miterlimit="10" d="M69.323,38.136
	c4.083-0.932,16.102,10.969,16.418,15.126c0.318,4.156-11.382,9.444-11.382,9.444s-1.327-3.111-6.876-6.169"/>
<path fill="#FFFFFF" stroke="#333333" stroke-linecap="round" stroke-miterlimit="10" d="M87.45,55.82
	c2.251,3.532-2.804,19.442-6.941,19.945c-3.451,0.422-9.67-1.568-9.67-1.568s5.059-3.164,4.103-9.429"/>
<path fill="#FFFFFF" stroke="#333333" stroke-linecap="round" stroke-miterlimit="10" d="M80.808,77.679
	c-2.617,4.976-15.908,6.426-22.172,2.81c-1.49-0.86-0.563-7.155-0.563-7.155s5.108,4.327,11.007,2.157"/>
<path fill="#FFFFFF" stroke="#333333" stroke-linecap="round" stroke-miterlimit="10" d="M56.909,72.609
	c-1.489-1.924-10.725-3.395-10.725-3.395l-1.768,3.808c0,0,2.665,1.2,5.723,3.292c-3.595,0.898-6.111,0.718-6.111,0.718l0.334,4.186
	c0,0,10.112,2.676,12.547-0.503"/>
<path fill="#FFFFFF" stroke="#333333" stroke-linecap="round" stroke-miterlimit="10" d="M43.499,35.072
	c1.441-0.189,1.916-0.043,2.902,0.281c4.052,1.336,8.557,12.813,5.786,16.061c-5.444,6.377-40.191-4.776-40.193-14.251
	c-0.004-15.764,60.37-6.257,64.622-19.662"/>
<path fill="#FFFFFF" stroke="#333333" stroke-linecap="round" stroke-miterlimit="10" d="M30.823,38.967
	c-6.332,2.834-11.584,6.173-11.584,6.173"/>
<circle id="eye_2_" fill="#FFFFFF" stroke="#333333" stroke-miterlimit="10" cx="37.428" cy="38.429" r="4.722"/>
</svg>
