<?xml version="1.0" encoding="utf-8"?>
<!-- Generator: Adobe Illustrator 16.0.0, SVG Export Plug-In . SVG Version: 6.00 Build 0)  -->
<!DOCTYPE svg PUBLIC "-//W3C//DTD SVG 1.1//EN" "http://www.w3.org/Graphics/SVG/1.1/DTD/svg11.dtd">
<svg version="1.1" id="Layer_1" xmlns="http://www.w3.org/2000/svg" xmlns:xlink="http://www.w3.org/1999/xlink" x="0px" y="0px"
	 width="100px" height="100px" viewBox="0 0 100 100" enable-background="new 0 0 100 100" xml:space="preserve">
<g id="cold">
	<g>
		<path fill="#FFFFFF" d="M88,85c0,1.657-1.343,3-3,3H16c-1.657,0-3-1.343-3-3V16c0-1.657,1.343-3,3-3h69c1.657,0,3,1.343,3,3V85z"
			/>
		<path fill="none" stroke="#333333" stroke-linecap="round" stroke-miterlimit="10" d="M87.5,84.5c0,1.657-1.343,3-3,3h-69
			c-1.657,0-3-1.343-3-3v-69c0-1.657,1.343-3,3-3h69c1.657,0,3,1.343,3,3V84.5z"/>
	</g>
	<g>
		<g>
			<g>
				
					<line fill="none" stroke="#333333" stroke-linecap="round" stroke-miterlimit="10" x1="32.534" y1="60.084" x2="47.914" y2="51.204"/>
				
					<line fill="none" stroke="#333333" stroke-linecap="round" stroke-miterlimit="10" x1="40.025" y1="55.688" x2="33.375" y2="51.85"/>
				
					<line fill="none" stroke="#333333" stroke-linecap="round" stroke-miterlimit="10" x1="35.925" y1="58.055" x2="31.622" y2="55.57"/>
				
					<line fill="none" stroke="#333333" stroke-linecap="round" stroke-miterlimit="10" x1="40.087" y1="55.795" x2="40.086" y2="63.473"/>
				
					<line fill="none" stroke="#333333" stroke-linecap="round" stroke-miterlimit="10" x1="35.987" y1="58.162" x2="35.986" y2="63.129"/>
			</g>
			<g>
				
					<line fill="none" stroke="#333333" stroke-linecap="round" stroke-miterlimit="10" x1="67.466" y1="39.916" x2="52.087" y2="48.795"/>
				
					<line fill="none" stroke="#333333" stroke-linecap="round" stroke-miterlimit="10" x1="59.188" y1="44.768" x2="65.837" y2="48.605"/>
				
					<line fill="none" stroke="#333333" stroke-linecap="round" stroke-miterlimit="10" x1="64.075" y1="41.945" x2="68.377" y2="44.428"/>
				
					<line fill="none" stroke="#333333" stroke-linecap="round" stroke-miterlimit="10" x1="59.125" y1="44.659" x2="59.126" y2="36.982"/>
				
					<line fill="none" stroke="#333333" stroke-linecap="round" stroke-miterlimit="10" x1="64.014" y1="41.838" x2="64.014" y2="36.869"/>
			</g>
		</g>
		<g>
			<g>
				
					<line fill="none" stroke="#333333" stroke-linecap="round" stroke-miterlimit="10" x1="32.534" y1="39.916" x2="47.914" y2="48.796"/>
				
					<line fill="none" stroke="#333333" stroke-linecap="round" stroke-miterlimit="10" x1="40.087" y1="44.205" x2="40.086" y2="36.527"/>
				
					<line fill="none" stroke="#333333" stroke-linecap="round" stroke-miterlimit="10" x1="35.987" y1="41.838" x2="35.987" y2="36.869"/>
				
					<line fill="none" stroke="#333333" stroke-linecap="round" stroke-miterlimit="10" x1="40.024" y1="44.313" x2="33.375" y2="48.15"/>
				
					<line fill="none" stroke="#333333" stroke-linecap="round" stroke-miterlimit="10" x1="35.925" y1="41.945" x2="31.623" y2="44.428"/>
			</g>
			<g>
				
					<line fill="none" stroke="#333333" stroke-linecap="round" stroke-miterlimit="10" x1="67.466" y1="60.084" x2="52.087" y2="51.205"/>
				
					<line fill="none" stroke="#333333" stroke-linecap="round" stroke-miterlimit="10" x1="59.125" y1="55.34" x2="59.126" y2="63.018"/>
				
					<line fill="none" stroke="#333333" stroke-linecap="round" stroke-miterlimit="10" x1="64.014" y1="58.162" x2="64.014" y2="63.129"/>
				
					<line fill="none" stroke="#333333" stroke-linecap="round" stroke-miterlimit="10" x1="59.188" y1="55.232" x2="65.837" y2="51.395"/>
				
					<line fill="none" stroke="#333333" stroke-linecap="round" stroke-miterlimit="10" x1="64.075" y1="58.055" x2="68.378" y2="55.57"/>
			</g>
		</g>
		<g>
			<g>
				<line fill="none" stroke="#333333" stroke-linecap="round" stroke-miterlimit="10" x1="50" y1="29.832" x2="50" y2="47.592"/>
				
					<line fill="none" stroke="#333333" stroke-linecap="round" stroke-miterlimit="10" x1="50.063" y1="38.518" x2="56.711" y2="34.678"/>
				
					<line fill="none" stroke="#333333" stroke-linecap="round" stroke-miterlimit="10" x1="50.063" y1="33.783" x2="54.365" y2="31.299"/>
				
					<line fill="none" stroke="#333333" stroke-linecap="round" stroke-miterlimit="10" x1="49.938" y1="38.518" x2="43.289" y2="34.678"/>
				
					<line fill="none" stroke="#333333" stroke-linecap="round" stroke-miterlimit="10" x1="49.938" y1="33.783" x2="45.637" y2="31.299"/>
			</g>
			<g>
				<line fill="none" stroke="#333333" stroke-linecap="round" stroke-miterlimit="10" x1="50" y1="70.168" x2="50" y2="52.41"/>
				
					<line fill="none" stroke="#333333" stroke-linecap="round" stroke-miterlimit="10" x1="49.938" y1="60.572" x2="43.289" y2="64.412"/>
				
					<line fill="none" stroke="#333333" stroke-linecap="round" stroke-miterlimit="10" x1="49.938" y1="66.217" x2="45.637" y2="68.701"/>
				
					<line fill="none" stroke="#333333" stroke-linecap="round" stroke-miterlimit="10" x1="50.063" y1="60.572" x2="56.711" y2="64.412"/>
				
					<line fill="none" stroke="#333333" stroke-linecap="round" stroke-miterlimit="10" x1="50.063" y1="66.217" x2="54.365" y2="68.701"/>
			</g>
		</g>
	</g>
	<circle fill="#FFFFFF" stroke="#333333" stroke-linecap="round" stroke-miterlimit="10" cx="50" cy="50" r="0.5"/>
	<line fill="none" stroke="#333333" stroke-linecap="round" stroke-miterlimit="10" x1="70" y1="19.5" x2="81" y2="19.5"/>
	<rect x="70.5" y="22.5" fill="#FFFFFF" stroke="#333333" stroke-linecap="round" stroke-miterlimit="10" width="10" height="3"/>
	<polyline fill="#FFFFFF" stroke="#333333" stroke-linecap="round" stroke-linejoin="round" stroke-miterlimit="10" points="
		24,82.5 17.5,82.5 17.5,76 	"/>
</g>
</svg>
